<?xml version="1.0" encoding="UTF-8" standalone="no"?>
<!-- Created with Inkscape (http://www.inkscape.org/) -->

<svg
   width="256mm"
   height="256mm"
   viewBox="0 0 256 256"
   version="1.1"
   id="svg1"
   sodipodi:docname="logo.svg"
   inkscape:version="1.3.2 (091e20ef0f, 2023-11-25)"
   xmlns:inkscape="http://www.inkscape.org/namespaces/inkscape"
   xmlns:sodipodi="http://sodipodi.sourceforge.net/DTD/sodipodi-0.dtd"
   xmlns="http://www.w3.org/2000/svg"
   xmlns:svg="http://www.w3.org/2000/svg">
  <sodipodi:namedview
     id="namedview1"
     pagecolor="#ffffff"
     bordercolor="#000000"
     borderopacity="0.25"
     inkscape:showpageshadow="2"
     inkscape:pageopacity="0.0"
     inkscape:pagecheckerboard="0"
     inkscape:deskcolor="#d1d1d1"
     inkscape:document-units="mm"
     inkscape:zoom="0.71624579"
     inkscape:cx="748.34646"
     inkscape:cy="432.81232"
     inkscape:window-width="1920"
     inkscape:window-height="1008"
     inkscape:window-x="0"
     inkscape:window-y="0"
     inkscape:window-maximized="1"
     inkscape:current-layer="layer1" />
  <defs
     id="defs1" />
  <g
     inkscape:label="Layer 1"
     inkscape:groupmode="layer"
     id="layer1"
     transform="matrix(1.258819,0,0,1.3532075,7.8827846,-38.317349)">
    <path
       style="fill:#ff6600;stroke-width:0.264583"
       id="path33"
       d="m 126.62024,62.367924 c 0.1888,1.384096 0.57661,2.729542 0.86438,4.092493 0.29052,1.375934 0.36319,2.107131 0.55432,3.5112 0.55892,4.041323 0.72034,8.131056 0.26771,12.192598 -0.10998,0.986891 -0.29203,1.964415 -0.43804,2.946623 -1.00831,5.888209 -2.90185,11.549713 -4.73243,17.217152 -1.07545,3.83506 -2.69576,7.89718 -1.71087,11.9471 0.20665,0.84975 0.59145,1.64599 0.88717,2.46899 1.17313,2.74176 2.77023,5.21687 4.5564,7.59071 0.64638,0.85905 1.28357,1.72738 1.98629,2.54098 1.02081,1.18186 3.75342,3.91111 4.86022,5.03137 2.34963,2.13252 4.70356,4.2901 7.2925,6.13605 2.08341,1.48551 4.32687,2.75498 6.5279,4.05427 1.68118,0.99364 3.39488,1.93097 5.117,2.85127 0,0 16.03327,-10.65025 16.03327,-10.65025 v 0 c -1.92599,-0.70828 -3.82509,-1.48594 -5.69831,-2.32455 -1.69315,-0.78584 -2.72289,-1.22625 -4.37814,-2.15916 -3.53289,-1.99119 -6.83731,-4.39352 -9.81218,-7.1482 -0.8006,-0.7934 -1.63258,-1.55634 -2.4018,-2.3802 -3.36015,-3.59879 -6.24195,-7.72079 -7.99527,-12.33962 -0.46246,-1.96521 -0.6687,-2.30404 -0.67152,-4.26783 -0.004,-3.08709 0.94778,-6.092717 1.71268,-9.047139 0.87105,-2.896695 1.77589,-5.785932 2.60386,-8.695309 0.48567,-1.706581 1.17401,-4.224975 1.51592,-5.978982 0.17963,-0.921549 0.28584,-1.855904 0.42876,-2.783856 0.15644,-1.22138 0.6456,-4.928521 0.74033,-6.127401 0.25734,-3.256915 0.18746,-6.538415 -0.0919,-9.790051 -0.28319,-2.566982 -0.74534,-5.214464 -0.34189,-7.787505 z" />
    <path
       style="fill:#ff6600;stroke-width:0.264583"
       id="path35"
       d="m 124.64023,88.291182 c 2.22413,2.999946 3.44535,6.589578 4.87391,10.003827 1.55402,4.099321 2.92302,8.266811 4.36216,12.407951 0.54683,1.45917 1.07564,3.00077 1.92645,4.32213 0.36534,0.56739 0.80414,1.08406 1.21629,1.61841 1.44321,1.87113 1.318,1.67236 2.91366,3.51734 0.53323,0.5988 1.04411,1.21828 1.5997,1.7964 1.88103,1.95734 3.91915,3.77558 5.85073,5.68303 1.9166,1.89265 1.7446,1.75011 3.52584,3.68107 2.1521,2.34967 4.0974,4.90423 5.69997,7.66207 0.7443,1.28087 1.03095,1.94694 1.64981,3.24856 0.71394,1.66515 0.40051,0.86385 0.95494,2.39812 0,0 16.72,-9.44402 16.72,-9.44402 v 0 c -0.82994,-1.49113 -0.38631,-0.70929 -1.33527,-2.34306 -2.42407,-3.86539 -5.01479,-7.64464 -8.0536,-11.05833 -3.64332,-3.65863 -7.47947,-7.13609 -10.80757,-11.09506 -0.88897,-1.14875 -1.79713,-2.2615 -2.57441,-3.49167 -1.128,-1.78527 -1.96572,-3.74028 -2.84463,-5.65279 -1.71489,-3.998774 -3.32903,-8.042282 -4.85263,-12.117603 -1.23032,-3.630618 -2.58336,-7.220207 -3.72029,-10.881146 z" />
    <path
       style="fill:#ff6600;stroke-width:0.264583"
       id="path34"
       d="m 119.64824,68.800289 c -0.29498,3.631882 -2.03107,6.951831 -3.69234,10.126728 -2.12158,4.01011 -4.98977,7.54045 -7.70452,11.152254 -1.53835,1.949386 -2.91862,4.036165 -3.8916,6.330045 -0.21579,0.508756 -0.45065,1.01718 -0.57043,1.556676 -0.12696,0.571849 -0.1091,1.166455 -0.16366,1.749684 0.10644,0.655674 0.11078,1.336354 0.31931,1.967034 0.48295,1.46057 1.90279,3.76981 2.68602,5.00581 1.74821,2.75882 3.75719,5.30967 5.75862,7.88496 0.64947,0.78224 1.27994,1.58066 1.94842,2.34672 0.33457,0.38342 3.84044,4.17843 4.18452,4.55223 2.24764,2.44177 4.45884,4.8969 6.60469,7.42878 2.40915,2.99159 1.25376,1.5398 3.46946,4.35274 0,0 15.61681,-9.42494 15.61681,-9.42494 v 0 c -2.52049,-2.61363 -1.2273,-1.24922 -3.87432,-4.09816 -2.19654,-2.49335 -4.29838,-5.06654 -6.50289,-7.55237 -1.3531,-1.52577 -2.7555,-3.00717 -4.11884,-4.52379 -0.66944,-0.74469 -1.33121,-1.49624 -1.99681,-2.24436 -2.79432,-3.3912 -6.50537,-7.898789 -7.11026,-12.399966 -0.0715,-0.532066 0.008,-1.073671 0.0116,-1.610505 0.11717,-0.466738 0.19973,-0.94356 0.35151,-1.400217 0.89966,-2.706706 2.7508,-4.970368 4.34508,-7.283389 0.83841,-1.139431 1.70118,-2.261188 2.51976,-3.414943 1.80428,-2.543051 3.39435,-5.230791 4.90449,-7.956042 1.77969,-3.605445 3.50064,-7.262937 4.46995,-11.184056 z" />
    <path
       style="fill:#ff6600;stroke-width:0.264583"
       id="path32"
       d="m 62.500327,60.764432 c 2.292527,1.440093 4.206893,3.379132 6.102376,5.290469 1.464916,1.663562 2.939195,3.395937 3.834127,5.448752 0.204931,0.470069 0.360762,0.960051 0.541142,1.440077 0.847905,3.259926 0.591127,6.65712 -0.238421,9.895096 -0.163285,0.637344 -0.377013,1.260692 -0.565518,1.891038 -0.939599,2.983365 -2.681221,5.527641 -4.596207,7.953303 -0.461206,0.637916 -0.931195,1.211612 -1.246028,1.942272 -0.452734,1.050692 -0.415026,1.501778 -0.541256,2.678115 -0.205629,1.916253 -0.150725,1.396363 -0.285327,3.359606 -0.105616,3.55168 -0.202493,7.1035 -0.223697,10.65679 -0.111098,3.32498 0.112088,6.64104 0.294262,9.95788 0.09168,3.14454 0.695383,6.2405 1.696024,9.21608 1.443315,3.45601 4.046455,6.19648 6.572207,8.89101 1.463797,1.57201 3.062354,3.00981 4.693346,4.40466 1.206236,0.95012 2.411778,1.89712 3.544626,2.9348 1.423789,1.16621 2.522614,2.63809 3.481472,4.19423 0,0 16.744185,-9.83712 16.744185,-9.83712 v 0 c -1.18094,-1.57219 -2.29853,-3.20332 -3.660807,-4.6275 -1.174078,-1.04042 -2.350891,-2.07917 -3.614973,-3.01094 -1.701437,-1.30621 -3.491785,-2.49874 -5.097512,-3.92637 -2.526149,-2.32912 -4.924878,-4.82683 -6.018271,-8.17116 -0.889669,-2.86409 -1.401278,-5.7251 -1.609971,-8.72004 -0.218191,-3.29212 -0.142155,-6.58697 -0.186259,-9.88439 -0.01873,-3.489538 -0.124174,-6.993524 0.266031,-10.468297 0.139298,-1.050999 0.245703,-2.175491 0.544359,-3.20059 0.435568,-1.495018 1.335574,-2.749405 2.232914,-3.99487 1.729015,-2.573451 3.117921,-5.339434 3.830995,-8.377523 0.154561,-0.668263 0.336214,-1.330833 0.463679,-2.004787 0.677326,-3.58125 0.773697,-7.277407 0.04166,-10.855365 -0.176543,-0.582586 -0.310446,-1.179838 -0.529629,-1.747755 -0.876589,-2.271311 -2.532402,-4.16088 -4.130162,-5.946058 -1.853991,-1.976247 -3.964937,-3.697917 -5.724723,-5.765226 z" />
    <path
       style="fill:#ff6600;stroke-width:0.264583"
       id="path31"
       d="m 22.530713,68.650045 c 0.839898,2.218446 1.57452,4.48396 2.217911,6.767306 0.730113,2.267389 1.166889,4.589044 1.363249,6.958393 0.322472,2.981561 -0.744063,5.79332 -1.884969,8.487971 -0.582645,1.269077 -1.237253,2.503826 -1.88886,3.738412 -0.394995,0.748384 -0.758947,1.331574 -1.039871,2.133364 -0.13938,0.397809 -0.222595,0.81312 -0.333894,1.219682 -0.644563,3.509997 -0.418616,7.105677 -0.346054,10.653887 0.282514,2.84237 0.277052,5.74808 0.971555,8.53592 0.114314,0.45887 0.267809,0.90708 0.401714,1.36063 1.382222,3.05893 3.170405,5.90804 4.965473,8.73649 1.478576,2.26434 3.093804,4.43326 4.649184,6.6442 0.953463,1.31664 1.80921,2.69901 2.715792,4.04678 0.277921,0.40078 0.545208,0.80771 0.800079,1.22341 0,0 17.045971,-10.13262 17.045971,-10.13262 v 0 c -0.335793,-0.35578 -0.643668,-0.73641 -0.973876,-1.09741 -1.0453,-1.26182 -2.05246,-2.55459 -3.067282,-3.84093 -1.661015,-2.09388 -3.266768,-4.22928 -4.799336,-6.41947 -1.777912,-2.62382 -3.652697,-5.24363 -4.584284,-8.31388 -0.898599,-3.01067 -1.410362,-6.12727 -1.492115,-9.2717 -0.106535,-3.443303 -0.07994,-6.970624 1.08141,-10.257498 0.992317,-2.317538 2.20141,-4.541967 3.044476,-6.922196 1.042937,-3.037943 2.090269,-6.192819 1.78663,-9.45016 -0.332523,-2.442572 -0.847031,-4.846865 -1.652108,-7.1819 C 40.82438,63.983827 40.06651,61.692189 39.8278,59.306676 Z" />
    <path
       style="fill:#ff0000;stroke-width:0.264583"
       id="path7"
       d="m 81.757765,137.28948 c -2.922363,-1.61838 -5.467723,-3.88849 -7.615613,-6.43735 -0.868699,-1.03087 -1.648624,-2.1334 -2.472936,-3.2001 -3.207999,-4.81515 -5.396384,-10.16783 -6.211258,-15.90899 -0.456083,-3.21331 -0.302233,-3.88676 -0.194376,-7.02564 0.570383,-5.757189 3.162969,-10.543499 5.812745,-15.550902 1.067297,-2.084655 2.220571,-4.183573 2.711259,-6.501294 0.586121,-2.768497 0.465061,-5.615591 0.386427,-8.419973 -0.216019,-3.072823 -0.894546,-6.108721 -2.003216,-8.983612 -0.453908,-1.177023 -0.987004,-2.321973 -1.473639,-3.485846 -0.445971,-1.339162 -1.905714,-4.025291 -0.863126,-5.410165 0.774723,-1.029066 2.061434,-1.139558 3.181895,-1.46035 0.845388,-0.01217 1.701329,-0.170209 2.536163,-0.0365 1.014537,0.162488 2.004298,0.498014 2.943717,0.914159 1.109268,0.491387 4.242583,2.355117 3.167441,1.792972 -3.836175,-2.005761 -7.419536,-4.549716 -11.451825,-6.124503 -1.324483,-0.517268 2.144379,1.871559 3.146065,2.880738 0.913331,0.92016 1.727874,1.933372 2.591813,2.900059 2.762012,3.403361 5.119396,7.210911 5.769999,11.62822 0.489762,3.325246 0.213259,4.114091 -0.103595,7.421411 -0.228843,1.135915 -0.4127,2.281825 -0.68653,3.407741 -0.886058,3.643231 -2.695221,7.082891 -2.895116,10.887017 -0.05907,1.124143 0.08076,2.24994 0.121147,3.374908 0.203798,1.200719 0.315897,2.420657 0.611394,3.602157 0.342022,1.367517 0.80912,2.702563 1.296276,4.025353 2.156912,5.85671 5.417603,11.16533 8.508915,16.55492 1.995461,3.44124 3.967475,6.89787 5.867977,10.39276 1.009459,1.85632 1.991725,3.6561 2.795151,5.61494 0.4035,0.98377 0.719029,2.00137 1.078542,3.00205 0.729829,2.32157 1.08667,4.71956 1.400601,7.12277 0,0 16.689308,8.13801 16.689308,8.13801 v 0 c -0.56844,-2.58588 -1.17406,-5.16355 -1.96863,-7.69177 -0.83382,-2.68144 -1.00689,-3.62278 -2.26458,-6.14069 -0.49903,-0.99907 -1.08902,-1.95044 -1.66245,-2.90874 -2.15585,-3.60281 -4.57215,-7.04484 -6.62189,-10.71269 -2.1823,-3.74008 -2.65345,-4.44544 -4.647161,-8.26457 -1.904482,-3.64821 -3.689988,-7.34845 -4.62329,-11.38242 -0.249848,-1.0799 -0.353668,-2.18846 -0.530503,-3.2827 -0.0094,-0.98885 -0.09434,-1.97987 -0.02819,-2.966551 0.139301,-2.077818 0.576961,-3.219823 1.082371,-5.22156 0.789488,-3.126865 1.464837,-6.282632 1.92518,-9.476439 0.213524,-1.90346 0.737444,-5.844333 0.625448,-7.771677 C 97.409716,71.766818 94.866247,67.570627 91.888174,63.94954 91.040391,62.980257 87.230436,58.504314 86.183723,57.80197 80.301824,53.855217 74.178805,50.276529 68.070925,46.689414 c -2.18997,-1.286155 -4.687903,-2.224093 -7.247027,-2.387206 -1.002475,-0.0639 -1.999356,0.196806 -2.999034,0.295209 -1.98791,0.73278 -3.163194,0.83244 -4.528243,2.569194 -1.697143,2.159273 -0.457303,4.615085 0.344905,6.787534 1.787507,3.913264 3.822729,7.771725 4.292913,12.122086 0.16942,2.215809 0.333451,3.073374 0.10736,5.30125 -0.314257,3.096615 -1.57829,5.95507 -2.843697,8.75896 -1.46462,3.189319 -0.711727,1.561126 -2.259854,4.884039 -0.652626,1.414684 -1.915078,4.090741 -2.389846,5.572601 -0.817309,2.550993 -0.743884,3.39821 -0.996064,6.08974 0.0038,1.210902 -0.07057,2.424581 0.01146,3.632709 0.17218,2.53634 0.808056,5.82595 1.378217,8.26986 0.344897,1.47834 0.664099,2.96902 1.158348,4.40435 0.795264,2.30949 2.519836,5.53627 3.621498,7.71317 0.632783,1.04969 1.21616,2.1308 1.898353,3.14908 1.570019,2.34347 3.53808,4.51447 5.715945,6.30467 z" />
    <path
       style="fill:#ff0000;stroke-width:0.264583"
       id="path8"
       d="m 123.15423,124.59706 c -5.29175,-4.11614 1.84265,1.51027 12.41929,6.80693 1.23971,0.62083 -2.23852,-1.6389 -3.31072,-2.51794 -2.4681,-2.02346 -4.73782,-4.1437 -6.94421,-6.44785 -1.02462,-1.07001 -1.98526,-2.1995 -2.97789,-3.29925 -3.44794,-4.15701 -6.34602,-8.77703 -7.9585,-13.96488 -1.05559,-3.39616 -1.11484,-4.81917 -1.63373,-8.377198 -0.0375,-1.528413 -0.18689,-3.058171 -0.11266,-4.585245 0.20527,-4.222848 1.22459,-8.317629 3.686,-11.810076 1.61301,-2.288659 2.73881,-3.011094 4.81936,-4.74703 1.86105,-1.449163 4.05527,-2.336906 6.06549,-3.534016 0.51566,-0.307078 1.15825,-0.4997 1.50348,-0.990634 1.13628,-1.615853 1.57355,-4.581179 1.96946,-6.368902 0.12776,-1.405649 0.30398,-2.807732 0.38329,-4.216945 0.0825,-1.465546 0.0846,-2.934652 0.1018,-4.402415 0.0477,-4.062376 -0.0385,-8.122973 -0.30857,-12.176223 -0.0332,-0.496313 -0.20936,-1.003774 -0.0996,-1.488937 0.0987,-0.43615 0.54877,1.50306 0.13449,1.334748 -4.98211,-2.024091 -9.36325,-5.438028 -14.4595,-7.154597 -1.48727,-0.500957 2.22939,2.21239 3.27123,3.386058 2.58794,2.915388 4.0267,4.985866 6.33802,8.09291 2.38584,3.411583 4.7619,6.84674 6.80145,10.481654 1.24523,2.219262 2.33035,4.336894 3.1186,6.766891 0.37233,1.147821 0.58287,2.341954 0.87431,3.512934 0.99944,5.419918 0.10679,10.899513 0.0757,16.346582 -0.005,0.898922 0.0498,1.797185 0.0748,2.695776 0.13591,0.850559 0.13873,1.733413 0.40774,2.551676 1.36274,4.145182 4.7206,7.262638 7.63369,10.310989 8.89978,9.31302 -0.93135,-1.129749 7.71311,8.0914 3.7926,4.41272 8.16632,8.59796 10.35045,14.12066 1.3136,3.3215 1.38878,5.10591 1.91201,8.56847 0.35609,3.11397 0.13599,6.21174 -0.20103,9.30852 0,0 16.21238,8.34002 16.21238,8.34002 v 0 c -0.0812,-3.39225 -0.22882,-6.78275 -0.72063,-10.14636 -0.55016,-3.58734 -0.71239,-5.49841 -1.78808,-9.00348 -0.44318,-1.44408 -0.86794,-2.91723 -1.59274,-4.24254 -0.67516,-1.23455 -1.67102,-2.26589 -2.56218,-3.35483 -2.1513,-2.62873 -4.27693,-4.82256 -6.59867,-7.31312 -2.47652,-2.65707 -5.01218,-5.25951 -7.44924,-7.95282 -2.12559,-2.34909 -5.23639,-5.72017 -6.4397,-8.754809 -0.30237,-0.762558 -0.4097,-1.588662 -0.61455,-2.382994 -0.10245,-0.886243 -0.24666,-1.768652 -0.30735,-2.658732 -0.38485,-5.644147 0.65753,-11.333395 -0.35073,-16.947681 -0.72484,-3.296507 -0.77326,-4.267848 -2.12646,-7.393048 -2.2697,-5.241864 -5.9346,-9.733505 -9.18791,-14.36729 -3.08427,-4.199012 -2.82645,-3.824399 -5.81883,-7.989745 -0.75116,-1.045623 -1.18211,-2.416183 -2.24466,-3.1432 -5.88751,-4.028321 -11.95182,-7.868705 -18.37765,-10.966897 -0.57696,-0.27818 -0.97577,0.947788 -1.09884,1.576377 -0.1083,0.553186 0.31488,1.082514 0.47231,1.623769 1.66932,6.690659 2.43758,13.667928 0.90745,20.469609 -0.75962,2.138328 -0.8157,3.13123 -2.29444,4.725416 -0.37132,0.400306 -0.86811,0.662704 -1.3107,0.982445 -1.89082,1.365975 -3.84434,2.653908 -5.49996,4.318241 -1.92311,1.992098 -3.16305,3.082713 -4.66748,5.504032 -0.74412,1.197633 -1.419106,2.450473 -1.924677,3.766693 -1.667939,4.342381 -1.928339,9.088254 -1.892483,13.678222 0.125601,1.489858 0.165055,2.989503 0.376801,4.46958 0.325956,2.278377 1.218936,5.904079 2.084856,8.053842 1.591143,3.95023 4.176373,7.42329 6.727893,10.78417 3.33708,3.75234 2.72663,3.17155 6.29401,6.75492 0.49365,0.49588 4.86371,4.86364 5.77137,5.44622 15.0837,9.6813 12.00605,8.21177 19.9952,11.78131 z" />
    <path
       style="fill:#803300;stroke-width:0.264583"
       id="path21"
       d="m 142.13208,135.25942 c -9.11077,3.58104 -18.71688,5.71327 -28.18267,8.12215 -8.33694,2.05074 -16.722077,3.89769 -25.064003,5.92787 -3.392852,0.82572 -6.774783,1.69568 -10.163201,2.53941 -4.72064,1.10691 -9.445892,2.19446 -14.173978,3.26914 -2.446591,0.5561 -5.190871,1.14466 -7.629612,1.77573 -1.194925,0.3092 -2.379043,0.65875 -3.568565,0.98812 -4.482089,1.35085 -9.02951,2.45215 -13.588746,3.50413 0,0 14.811094,10.18335 14.811094,10.18335 v 0 c 4.378418,-1.33101 8.764649,-2.63697 13.195602,-3.78455 3.600664,-0.95552 7.159942,-2.02662 10.746176,-3.03234 4.161803,-1.16714 4.6175,-1.23429 8.92234,-2.31904 1.616824,-0.40741 3.232293,-0.82018 4.848439,-1.23027 4.592677,-1.15655 5.507572,-1.34929 10.051624,-2.64314 7.95073,-2.26384 15.84321,-4.74478 23.87747,-6.70731 10.01604,-2.32709 20.10601,-4.70748 30.41975,-5.18017 0.52051,-0.0239 1.0421,0.003 1.56315,0.004 z" />
    <path
       style="fill:#803300;stroke-width:0.264583"
       id="path22"
       d="m 145.90301,140.29069 c -0.30485,0.28405 -0.58382,0.59869 -0.91453,0.85214 -1.81258,1.38915 -2.90088,1.95779 -5.05985,2.9851 -3.94809,1.87864 -8.05325,3.24297 -12.19584,4.61315 -7.30758,2.20502 -1.22241,0.41525 -8.46036,2.41733 -1.51867,0.42007 -3.02521,0.88398 -4.54817,1.28822 -4.81716,1.27862 -9.68486,2.33449 -14.56276,3.34823 -3.950542,0.93805 -7.984547,1.49832 -11.939086,2.41503 -3.645069,0.84497 -7.247461,1.94124 -10.852941,2.93801 -5.148,1.31453 -10.182539,3.02203 -15.25406,4.59583 0,0 15.178958,10.24864 15.178958,10.24864 v 0 c 4.719548,-1.94723 9.555255,-3.57106 14.4657,-4.97074 2.925609,-0.80843 4.347323,-1.22597 7.302907,-1.94321 1.213262,-0.29443 2.438372,-0.53876 3.650732,-0.83689 3.74921,-0.92196 7.44802,-2.04778 11.21488,-2.90156 4.84573,-1.17156 9.70406,-2.28508 14.56103,-3.4091 1.62216,-0.37541 3.2566,-0.70027 4.86838,-1.11803 1.93126,-0.50058 6.53964,-1.96683 8.40843,-2.5507 6.94817,-2.33868 13.86326,-4.76342 20.74303,-7.29492 z" />
    <path
       style="fill:#803300;stroke-width:0.264583"
       id="path23"
       d="m 164.50824,146.78134 c -2.02692,2.23078 -4.66132,3.78806 -7.20616,5.3445 -12.01602,7.34905 5.59715,-3.51208 -6.75346,4.11715 -5.47526,3.77081 -11.13887,7.25461 -16.75735,10.80476 -2.72749,1.88172 -5.67279,3.33553 -8.79955,4.40944 -6.34305,2.067 -12.99882,2.94564 -19.57676,3.91291 -9.860148,1.16096 -19.622371,2.9554 -29.370877,4.80556 -3.646575,0.74667 -7.302892,1.44518 -10.97017,2.08214 0,0 15.447518,10.66442 15.447518,10.66442 v 0 c 3.210189,-1.06067 6.432393,-2.08898 9.717095,-2.89942 9.427824,-2.41542 19.006474,-4.21885 28.712724,-5.05708 4.52284,-0.40449 9.02966,-0.82992 13.53091,-1.43217 2.02051,-0.27034 4.09861,-0.52793 6.0937,-0.97836 0.67659,-0.15276 1.3366,-0.3714 2.0049,-0.5571 1.36191,-0.48773 1.99389,-0.67231 3.28553,-1.29444 2.02425,-0.975 3.86563,-2.29856 5.61618,-3.69384 4.95055,-4.10996 9.96568,-8.18929 15.57621,-11.38337 3.09943,-1.82507 3.76352,-2.27053 6.93919,-3.92583 3.53985,-1.84512 2.90866,-1.43459 6.33802,-3.0277 1.87112,-0.86923 1.51058,-0.69368 2.90169,-1.47485 z" />
    <path
       style="fill:#ff0000;stroke-width:0.264583"
       id="path6"
       d="m 42.046551,142.61939 c -3.451664,-6.51363 -6.71975,-13.12369 -10.196928,-19.62382 -2.134745,-3.76963 -3.837551,-7.78158 -4.888283,-11.99022 -0.492675,-1.97339 -0.666818,-3.35125 -0.984027,-5.35235 -0.647461,-4.65747 -0.740886,-9.453877 0.146343,-14.092415 0.161112,-0.842314 0.407054,-1.666163 0.610579,-2.499243 0.927,-2.89478 2.006206,-5.735114 2.952724,-8.623739 0.399153,-1.218155 0.866402,-2.418453 1.163314,-3.665474 0.546595,-2.295703 1.001972,-6.310829 1.304544,-8.662538 0.426689,-4.997344 0.661829,-10.024607 0.173519,-15.023949 0.0079,-0.119782 -0.384995,-2.146088 -0.401161,-2.149147 -1.212508,-0.229576 1.90618,2.493685 -0.231815,1.472875 -5.081902,-2.42642 -9.86954,-5.426337 -14.80431,-8.139507 1.064755,0.789943 2.18394,1.511369 3.194266,2.369831 3.904894,3.317936 7.199104,7.334035 10.000402,11.608186 0.876985,1.338088 1.71968,2.703399 2.454338,4.124616 0.710642,1.374751 1.249058,2.831904 1.873586,4.247856 1.272212,3.61152 1.827175,7.323897 1.568979,11.142871 -0.180774,2.673832 -0.492167,3.423111 -1.009716,5.970617 -0.189201,0.931291 -0.3561,1.866974 -0.534149,2.800464 -0.889431,4.463354 -0.748813,9.156866 0.759132,13.484626 0.360069,1.03339 0.843513,2.01957 1.265269,3.02935 3.235899,6.60236 7.267554,12.76877 10.9712,19.11165 1.914085,3.28275 3.87569,6.55569 5.121277,10.16018 0.313301,0.88782 0.461881,1.81019 0.581478,2.73871 0,0 17.441187,8.55492 17.441187,8.55492 v 0 c -0.188963,-1.08544 -0.385106,-2.17116 -0.725352,-3.22236 -0.476581,-1.27236 -0.580734,-1.63225 -1.195316,-2.9046 -1.375752,-2.84817 -3.146473,-5.48788 -4.887281,-8.11957 -4.012318,-6.07153 -8.008863,-12.19357 -11.05854,-18.82085 -0.365752,-0.91167 -0.767586,-1.80969 -1.097256,-2.73502 -1.469597,-4.1249 -1.928509,-8.459469 -1.226418,-12.789904 0.517072,-3.063391 1.119452,-6.166178 1.251042,-9.27772 0.05288,-1.250392 0.08186,-2.507806 -0.02878,-3.754414 C 51.299554,78.486806 50.674822,77.038943 49.664622,73.627545 49.037467,72.127564 48.521926,70.575873 47.783159,69.127602 47.018508,67.628587 46.076687,66.225731 45.166838,64.810134 43.639739,62.434181 40.997494,58.651092 39.202341,56.430833 38.089212,55.054105 35.60436,52.41305 34.280821,50.987597 28.200408,47.580129 22.339768,43.746782 16.039577,40.76519 c -0.892725,-0.422484 -1.875015,1.309092 -1.943473,1.912321 -0.01096,0.09654 1.04796,1.835428 1.001943,2.080601 1.61203,4.964393 2.129471,10.185818 1.886504,15.39467 -0.420694,3.876836 -0.308814,4.451278 -1.407655,8.20085 -0.73581,2.510801 -1.611677,4.369951 -2.702214,6.726269 -0.4337,0.937096 -0.947437,1.838246 -1.335072,2.795315 -0.335022,0.82717 -0.552181,1.697318 -0.828271,2.545977 -0.516216,2.236161 -0.8025224,3.175942 -1.0495313,5.479341 -0.4147822,3.867915 -0.2506739,7.899043 0.030439,11.768156 0.1412536,0.929457 0.2463554,1.865135 0.4237613,2.78837 1.029811,5.35928 3.053178,10.45032 5.520554,15.2995 3.102403,5.24788 6.541929,10.6773 8.434327,16.50344 0.211097,0.6499 0.314644,1.32994 0.471966,1.99492 z" />
    <path
       style="fill:#784421;stroke-width:0.264583"
       id="path25"
       d="m 26.483791,141.94161 c 3.559337,1.57876 7.241183,2.85887 10.868224,4.2689 16.860493,6.55459 -9.356598,-3.55103 8.235142,3.21827 5.536801,1.89706 11.148439,3.67282 16.864634,4.95911 2.542276,0.57207 4.276326,0.81114 6.844131,1.22485 4.760992,0.71578 9.511054,1.48546 14.24306,2.37187 0.502404,0.0941 1.004121,0.19203 1.507213,0.28244 1.720127,0.3091 1.861642,0.28855 3.642161,0.69778 2.438747,0.56052 4.814401,1.29054 7.193587,2.05954 3.609274,1.06409 7.122457,2.41781 10.683167,3.62517 1.62513,0.55105 3.27156,1.0382 4.89457,1.59548 0.0817,0.028 8.95793,3.23602 9.24615,3.34018 4.85219,1.77229 9.81303,3.3527 14.95308,4.02381 2.13057,0.27818 5.82738,0.5147 7.98218,0.67032 1.21933,0.0758 2.43865,0.15164 3.65798,0.22745 0,0 14.19717,-10.216 14.19717,-10.216 v 0 c -1.25374,-0.0373 -2.50748,-0.0747 -3.76122,-0.11199 -1.30557,-0.0756 -2.61331,-0.12016 -3.91672,-0.22678 -6.5301,-0.53419 -12.96406,-1.87724 -19.23002,-3.77272 -3.95534,-1.26736 -5.42657,-1.66271 -9.3207,-3.22486 -1.48516,-0.59577 -2.9322,-1.28261 -4.4043,-1.90997 -3.30295,-1.40762 -6.63006,-2.75932 -9.91579,-4.20773 -3.90848,-1.48145 -7.85306,-3.09815 -12.015216,-3.68233 -5.059842,-0.61614 -10.13329,-1.10443 -15.195092,-1.70254 -8.164423,-1.18293 -16.373946,-2.22924 -24.046074,-5.47438 -3.149918,-1.30065 -4.838772,-1.95628 -7.903641,-3.38202 -2.66582,-1.24011 -5.459474,-2.52932 -7.7713,-4.38567 -0.268581,-0.21567 -0.482174,-0.49204 -0.723262,-0.73805 z" />
    <path
       style="fill:#784421;stroke-width:0.264583"
       id="path26"
       d="m 21.602132,160.89452 c 6.344657,2.00342 12.490589,4.59995 18.39003,7.67411 1.431613,0.74601 2.828769,1.55636 4.243152,2.33453 1.253829,0.76829 2.512422,1.52886 3.761488,2.30487 1.16654,0.72474 2.332221,1.45114 3.485177,2.1973 2.654784,1.71809 5.227735,3.55365 8.056464,4.9877 0.719005,0.3645 1.468081,0.66637 2.202122,0.99956 3.558469,1.29817 7.338319,1.55225 11.090913,1.44673 0.466172,-0.0277 0.932428,-0.0541 1.398518,-0.0832 1.930665,-0.12056 2.532169,-0.22312 4.643808,-0.0674 3.827812,0.28226 7.52221,1.178 11.232798,2.09999 4.907468,1.33755 9.781834,2.8133 14.727108,4.00969 3.13172,0.75764 4.06391,0.90787 7.25471,1.54171 4.04106,0.81698 8.0788,1.75343 12.19025,2.15825 2.12687,0.20941 4.2639,0.29833 6.39527,0.45538 4.56132,0.36958 9.13117,0.73746 13.65161,1.47448 1.00664,0.16412 2.00465,0.37733 3.00698,0.566 0,0 14.63393,-10.26091 14.63393,-10.26091 v 0 c -5.57393,-0.8484 -11.15945,-1.63407 -16.77517,-2.15277 -6.2769,-0.5321 -12.57044,-1.03791 -18.76627,-2.22202 -7.41795,-1.55427 -14.81979,-3.20133 -22.0908,-5.35671 -3.52209,-0.98248 -7.024575,-2.05011 -10.588952,-2.87215 -1.46069,-0.33688 -2.695911,-0.64641 -4.178683,-0.67308 -0.470535,-0.008 -0.938665,0.0694 -1.407996,0.10404 -3.781989,0.35009 -7.440724,0.59183 -11.171965,-0.4072 -0.770176,-0.24872 -1.552491,-0.46259 -2.31053,-0.74616 -5.825013,-2.17905 -10.940862,-5.82222 -16.45064,-8.63677 -1.777005,-0.96314 -6.868401,-3.72576 -8.64544,-4.67664 -4.965404,-2.65696 -2.986739,-1.5163 -7.582287,-4.13553 -0.872323,-0.49719 -1.757926,-0.97301 -2.606833,-1.5092 -0.54646,-0.34515 -1.049618,-0.75452 -1.57443,-1.13178 z" />
    <path
       style="fill:#784421;stroke-width:0.264583"
       id="path27"
       d="m 5.9315706,177.45756 c 0.7191719,0.37321 4.0377023,2.09855 4.3558274,2.24537 1.448289,0.6684 2.93556,1.24908 4.395695,1.89119 1.644024,0.72298 3.266015,1.49591 4.916516,2.20398 3.113674,1.33578 7.597303,3.09787 10.755182,4.35548 8.525457,3.52077 17.610015,5.22769 26.660599,6.75163 4.125576,0.70328 8.286909,1.34329 12.274912,2.6555 0.675405,0.22223 1.335283,0.48914 2.002925,0.7337 0.668602,0.25971 1.336082,0.52232 2.005806,0.77911 1.305063,0.50042 3.229438,1.24117 4.545693,1.63876 3.18172,0.96108 6.45646,1.62103 9.700127,2.3296 5.087647,1.02564 10.172184,2.06307 15.251867,3.12698 2.68356,0.58877 5.38745,1.14857 8.11716,1.48189 1.328,0.16216 2.66655,0.23165 3.99298,0.40611 1.47302,0.19373 2.93475,0.46535 4.40213,0.69803 4.90953,0.80328 9.70082,2.13395 14.44065,3.61661 0,0 14.82757,-10.2218 14.82757,-10.2218 v 0 c -5.09227,-1.01873 -10.19925,-1.97388 -15.25389,-3.17031 -15.81526,-3.70517 5.91523,1.46398 -7.30705,-1.90205 -0.72822,-0.18538 -1.4753,-0.28679 -2.21125,-0.43863 -1.91253,-0.39457 -3.82167,-0.79871 -5.74996,-1.11345 -5.30221,-0.95796 -10.66196,-1.56619 -15.95249,-2.59463 -2.61782,-0.55769 -3.819608,-0.75429 -6.367421,-1.52844 -3.106682,-0.94396 -6.065398,-2.30443 -9.090281,-3.46876 -0.941837,-0.33498 -3.414996,-1.23143 -4.352883,-1.49522 -3.555471,-1.00002 -7.257412,-1.30448 -10.915163,-1.67433 -1.244124,-0.13056 -6.729367,-0.6997 -7.798064,-0.8402 -6.756765,-0.88832 -13.421233,-2.3872 -19.819956,-4.76171 -1.7692,-0.68615 -3.561358,-1.31582 -5.3076,-2.05846 -5.110813,-2.17351 -10.808366,-4.93393 -14.827616,-8.87277 -0.321085,-0.31466 -0.569237,-0.69599 -0.853856,-1.04398 z" />
    <circle
       id="path28"
       style="fill:#784421;stroke:#000000;stroke-width:0.264583"
       cx="224.81596"
       cy="212.6618"
       r="0.24602237" />
    <circle
       id="path29"
       style="fill:#784421;stroke:#000000;stroke-width:0.264583"
       cx="271.69675"
       cy="236.00201"
       r="0.24602237" />
    <circle
       id="path30"
       style="fill:#ff6600;stroke:#000000;stroke-width:0.264583"
       cx="290.96606"
       cy="254.04755"
       r="0.24602237" />
  </g>
</svg>
